<mxfile host="65bd71144e">
    <diagram id="-WPzHvBtC_NiGCQGtoBF" name="Page-1">
        <mxGraphModel dx="632" dy="565" grid="1" gridSize="10" guides="1" tooltips="1" connect="1" arrows="1" fold="1" page="1" pageScale="1" pageWidth="850" pageHeight="1400" math="0" shadow="0">
            <root>
                <mxCell id="0"/>
                <mxCell id="1" parent="0"/>
                <mxCell id="5" style="edgeStyle=none;html=1;exitX=1;exitY=0.5;exitDx=0;exitDy=0;entryX=0;entryY=0.5;entryDx=0;entryDy=0;" parent="1" source="2" target="3" edge="1">
                    <mxGeometry relative="1" as="geometry"/>
                </mxCell>
                <mxCell id="2" value="ONU" style="rounded=1;whiteSpace=wrap;html=1;" parent="1" vertex="1">
                    <mxGeometry x="120" y="240" width="80" height="40" as="geometry"/>
                </mxCell>
                <mxCell id="6" style="edgeStyle=none;html=1;exitX=0.5;exitY=0;exitDx=0;exitDy=0;entryX=0.5;entryY=1;entryDx=0;entryDy=0;" parent="1" source="3" target="4" edge="1">
                    <mxGeometry relative="1" as="geometry"/>
                </mxCell>
                <mxCell id="38" style="edgeStyle=none;html=1;exitX=1;exitY=0.5;exitDx=0;exitDy=0;entryX=0;entryY=0.5;entryDx=0;entryDy=0;" parent="1" source="3" target="36" edge="1">
                    <mxGeometry relative="1" as="geometry"/>
                </mxCell>
                <mxCell id="3" value="HGW" style="rounded=1;whiteSpace=wrap;html=1;" parent="1" vertex="1">
                    <mxGeometry x="240" y="240" width="80" height="40" as="geometry"/>
                </mxCell>
                <mxCell id="4" value="光電話" style="rounded=1;whiteSpace=wrap;html=1;" parent="1" vertex="1">
                    <mxGeometry x="240" y="180" width="80" height="40" as="geometry"/>
                </mxCell>
                <mxCell id="25" style="edgeStyle=none;html=1;exitX=0.55;exitY=0.95;exitDx=0;exitDy=0;exitPerimeter=0;entryX=0.5;entryY=0;entryDx=0;entryDy=0;" parent="1" source="24" target="2" edge="1">
                    <mxGeometry relative="1" as="geometry">
                        <Array as="points">
                            <mxPoint x="146" y="210"/>
                            <mxPoint x="160" y="210"/>
                        </Array>
                    </mxGeometry>
                </mxCell>
                <mxCell id="24" value="いんたぁねっと" style="ellipse;shape=cloud;whiteSpace=wrap;html=1;" parent="1" vertex="1">
                    <mxGeometry x="80" y="80" width="120" height="80" as="geometry"/>
                </mxCell>
                <mxCell id="86" style="edgeStyle=none;html=1;exitX=1;exitY=0.5;exitDx=0;exitDy=0;entryX=0.5;entryY=0;entryDx=0;entryDy=0;" parent="1" source="36" target="43" edge="1">
                    <mxGeometry relative="1" as="geometry">
                        <Array as="points">
                            <mxPoint x="560" y="260"/>
                            <mxPoint x="560" y="330"/>
                            <mxPoint x="190" y="330"/>
                        </Array>
                        <mxPoint x="520" y="280" as="sourcePoint"/>
                    </mxGeometry>
                </mxCell>
                <mxCell id="36" value="RT(IPoE)" style="rounded=1;whiteSpace=wrap;html=1;" parent="1" vertex="1">
                    <mxGeometry x="360" y="240" width="80" height="40" as="geometry"/>
                </mxCell>
                <mxCell id="87" style="edgeStyle=none;html=1;entryX=0.5;entryY=0;entryDx=0;entryDy=0;exitX=0.3;exitY=0.975;exitDx=0;exitDy=0;exitPerimeter=0;" parent="1" target="96" edge="1" source="43">
                    <mxGeometry relative="1" as="geometry">
                        <mxPoint x="160" y="390" as="sourcePoint"/>
                        <mxPoint x="150" y="550" as="targetPoint"/>
                    </mxGeometry>
                </mxCell>
                <mxCell id="99" style="edgeStyle=none;html=1;entryX=0.5;entryY=0;entryDx=0;entryDy=0;exitX=0.355;exitY=1.008;exitDx=0;exitDy=0;exitPerimeter=0;" edge="1" parent="1" source="43" target="82">
                    <mxGeometry relative="1" as="geometry">
                        <mxPoint x="170" y="390" as="sourcePoint"/>
                        <Array as="points">
                            <mxPoint x="170" y="480"/>
                            <mxPoint x="250" y="480"/>
                        </Array>
                    </mxGeometry>
                </mxCell>
                <mxCell id="100" style="edgeStyle=none;html=1;entryX=0.5;entryY=0;entryDx=0;entryDy=0;exitX=0.432;exitY=1.071;exitDx=0;exitDy=0;exitPerimeter=0;" edge="1" parent="1" source="43" target="83">
                    <mxGeometry relative="1" as="geometry">
                        <mxPoint x="190" y="380" as="sourcePoint"/>
                        <Array as="points">
                            <mxPoint x="180" y="470"/>
                            <mxPoint x="340" y="470"/>
                        </Array>
                    </mxGeometry>
                </mxCell>
                <mxCell id="101" style="edgeStyle=none;html=1;exitX=0.5;exitY=1;exitDx=0;exitDy=0;entryX=0.5;entryY=0;entryDx=0;entryDy=0;" edge="1" parent="1" source="43" target="85">
                    <mxGeometry relative="1" as="geometry">
                        <Array as="points">
                            <mxPoint x="190" y="460"/>
                            <mxPoint x="430" y="460"/>
                        </Array>
                    </mxGeometry>
                </mxCell>
                <mxCell id="43" value="SW" style="rounded=1;whiteSpace=wrap;html=1;" parent="1" vertex="1">
                    <mxGeometry x="120" y="370" width="140" height="40" as="geometry"/>
                </mxCell>
                <mxCell id="82" value="DS215" style="rounded=1;whiteSpace=wrap;html=1;fillColor=default;gradientColor=none;" parent="1" vertex="1">
                    <mxGeometry x="210" y="560" width="80" height="120" as="geometry"/>
                </mxCell>
                <mxCell id="83" value="HP Prodesk" style="rounded=1;whiteSpace=wrap;html=1;fillColor=default;gradientColor=none;" parent="1" vertex="1">
                    <mxGeometry x="300" y="560" width="80" height="120" as="geometry"/>
                </mxCell>
                <mxCell id="85" value="Ruckus ZF7372" style="rounded=1;whiteSpace=wrap;html=1;fillColor=default;gradientColor=none;" parent="1" vertex="1">
                    <mxGeometry x="390" y="560" width="80" height="120" as="geometry"/>
                </mxCell>
                <mxCell id="91" value="" style="rounded=0;whiteSpace=wrap;html=1;fillColor=none;gradientColor=none;strokeColor=#FF9999;" parent="1" vertex="1">
                    <mxGeometry x="70" y="170" width="720" height="170" as="geometry"/>
                </mxCell>
                <mxCell id="93" value="部屋A" style="text;html=1;align=center;verticalAlign=middle;resizable=0;points=[];autosize=1;strokeColor=none;fillColor=none;" parent="1" vertex="1">
                    <mxGeometry x="30" y="200" width="50" height="20" as="geometry"/>
                </mxCell>
                <mxCell id="94" value="" style="rounded=0;whiteSpace=wrap;html=1;fillColor=none;strokeColor=#66FFFF;" parent="1" vertex="1">
                    <mxGeometry x="70" y="350" width="720" height="340" as="geometry"/>
                </mxCell>
                <mxCell id="95" value="部屋B" style="text;html=1;align=center;verticalAlign=middle;resizable=0;points=[];autosize=1;strokeColor=none;fillColor=none;" parent="1" vertex="1">
                    <mxGeometry x="30" y="410" width="50" height="20" as="geometry"/>
                </mxCell>
                <mxCell id="96" value="メイン機" style="rounded=1;whiteSpace=wrap;html=1;fillColor=default;gradientColor=none;" parent="1" vertex="1">
                    <mxGeometry x="120" y="560" width="80" height="120" as="geometry"/>
                </mxCell>
            </root>
        </mxGraphModel>
    </diagram>
</mxfile>